<svg width="25" height="25" viewBox="0 0 25 25" fill="none" xmlns="http://www.w3.org/2000/svg">
<path opacity="0.9" d="M5.08416 0.872305C3.92109 -0.290768 2.03538 -0.290768 0.872305 0.872304C-0.290768 2.03538 -0.290768 3.92109 0.872304 5.08416L8.28814 12.5L0.872305 19.9158C-0.290768 21.0789 -0.290768 22.9646 0.872305 24.1277C2.03538 25.2908 3.92109 25.2908 5.08417 24.1277L12.5 16.7119L19.9158 24.1277C21.0789 25.2908 22.9646 25.2908 24.1277 24.1277C25.2908 22.9646 25.2908 21.0789 24.1277 19.9158L16.7119 12.5L24.1277 5.08416C25.2908 3.92109 25.2908 2.03538 24.1277 0.872304C22.9646 -0.290768 21.0789 -0.290768 19.9158 0.872305L12.5 8.28814L5.08416 0.872305Z" fill="#767676" fill-opacity="0.65"/>
</svg>
