<?xml version="1.0" encoding="UTF-8"?>
<svg version="1.1" xmlns="http://www.w3.org/2000/svg" width="1596" height="1595">
<path d="M0 0 C2.26476009 0.22809522 4.53022291 0.4476713 6.79595947 0.66583252 C91.49187503 8.92110074 174.79993886 31.01129372 252.26226807 66.22784424 C253.39164795 66.74105225 254.52102783 67.25426025 255.68463135 67.78302002 C312.8316078 93.84686234 365.58998178 125.83596085 415.26226807 164.22784424 C415.95014404 164.75829346 416.63802002 165.28874268 417.34674072 165.83526611 C425.27502093 171.95990832 433.00359721 178.28568259 440.60601807 184.80987549 C442.30912385 186.26795897 444.0193608 187.71731276 445.73101807 189.16534424 C452.29537675 194.73405704 458.72932067 200.40942065 465.00054932 206.30767822 C467.14187791 208.31448569 469.25053106 210.21934169 471.62945557 211.94268799 C472.16828369 212.36678955 472.70711182 212.79089111 473.26226807 213.22784424 C473.26226807 213.88784424 473.26226807 214.54784424 473.26226807 215.22784424 C473.8565007 215.4970871 474.45073334 215.76632996 475.06297302 216.04373169 C477.2635361 217.22852695 478.69424995 218.41209862 480.45098877 220.17364502 C481.34760979 221.06565109 481.34760979 221.06565109 482.26234436 221.97567749 C482.897827 222.61834564 483.53330963 223.26101379 484.18804932 223.92315674 C485.18677315 224.9225679 485.18677315 224.9225679 486.20567322 225.94216919 C487.61419989 227.35371484 489.02029739 228.76768805 490.4241333 230.18389893 C492.55137956 232.3292566 494.68637249 234.46664858 496.82281494 236.60284424 C498.19502956 237.97998042 499.56678869 239.35757063 500.93804932 240.73565674 C501.56745926 241.3661795 502.1968692 241.99670227 502.84535217 242.64633179 C506.61161418 246.45216567 510.20206178 250.36773243 513.69630432 254.42500305 C516.10465213 257.19765257 518.62513938 259.86212091 521.13726807 262.54034424 C525.59606287 267.33299339 529.82347598 272.24974252 533.92242432 277.35675049 C536.1207927 280.05424758 538.37280857 282.69090685 540.65264893 285.31915283 C546.32237898 291.85584965 551.70489252 298.54259899 556.91558838 305.45147705 C558.37188057 307.372431 559.84299354 309.28135549 561.31695557 311.18878174 C575.54842316 329.62475598 588.71153579 348.61180766 601.26226807 368.22784424 C601.85572021 369.15532471 602.44917236 370.08280518 603.06060791 371.03839111 C618.62967414 395.49696483 632.46500456 421.07607582 645.22174072 447.10528564 C645.93464033 448.55952056 646.65061663 450.0122501 647.36920166 451.46368408 C686.4275681 530.55481173 709.96549249 617.02367213 722.26226807 729.22784424 C722.36523193 730.41909912 722.4681958 731.610354 722.57427979 732.83770752 C726.07539618 774.11548262 726.03182525 816.98688293 722.26226807 858.22784424 C722.06463181 860.6743765 721.86804422 863.12099367 721.67242432 865.56768799 C714.78149514 947.36507982 694.61535779 1028.66354899 620.98248291 1187.27471924 C619.80269049 1189.30009095 618.62883523 1191.32892933 617.46002197 1193.36065674 C595.24371779 1231.96737219 569.79883529 1269.49713756 540.59991455 1303.18927002 C537.60280137 1306.64856167 534.68650911 1310.15459172 531.82476807 1313.72784424 C527.22593255 1319.39890371 522.25783276 1324.69042966 517.26226807 1330.00909424 C514.99298744 1332.42928762 512.78992439 1334.89011278 510.63726807 1337.41534424 C507.26910889 1341.33635783 503.60282037 1344.94237069 499.90435791 1348.54888916 C497.24198322 1351.12728768 497.24198322 1351.12728768 495.26226807 1354.22784424 C494.60226807 1354.22784424 493.94226807 1354.22784424 493.26226807 1354.22784424 C493.05601807 1354.77182861 492.84976807 1355.31581299 492.63726807 1355.87628174 C490.7330514 1359.13292502 488.05589258 1361.37835432 485.26226807 1363.85284424 C481.05088499 1367.65353141 476.93194983 1371.49623119 472.94976807 1375.54034424 C469.52210295 1379.00664648 466.01600358 1382.28965273 462.31304932 1385.45831299 C459.98660224 1387.46570446 457.72034121 1389.53251062 455.44976807 1391.60284424 C451.16239346 1395.47257505 446.74427607 1399.13952757 442.25445557 1402.77081299 C438.26661122 1406.04542669 434.36291205 1409.41405378 430.472229 1412.80328369 C399.8983061 1439.26009869 364.89920099 1462.7427457 329.80523682 1482.77178955 C327.28090208 1484.21717477 324.77057541 1485.68453905 322.26226807 1487.15753174 C253.08005613 1527.56638531 176.59174198 1556.97673803 -11.3973999 1590.0435791 C-13.58447034 1590.21577725 -15.77050269 1590.39735357 -17.95648193 1590.58282471 C-108.48645703 1598.07872447 -200.84196324 1587.75294036 -475.73773193 1484.22784424 C-476.4505835 1483.81341064 -477.16343506 1483.39897705 -477.89788818 1482.97198486 C-512.52695956 1462.74345687 -546.11903885 1439.23808032 -576.996521 1413.66485596 C-579.51930913 1411.58281292 -582.06864963 1409.53377629 -584.61273193 1407.47784424 C-588.99462109 1403.8908705 -593.21839955 1400.15646489 -597.40570068 1396.34503174 C-599.49597083 1394.44733255 -601.60759308 1392.58051009 -603.73773193 1390.72784424 C-616.78293899 1379.34246472 -629.47223487 1367.57400332 -641.73773193 1355.35284424 C-642.77812622 1354.31933838 -642.77812622 1354.31933838 -643.83953857 1353.26495361 C-647.79621318 1349.29634261 -651.55137592 1345.21217403 -655.21087646 1340.96856689 C-657.4812612 1338.38016856 -659.95279178 1336.03558988 -662.45257568 1333.67315674 C-663.73773193 1332.22784424 -663.73773193 1332.22784424 -663.73773193 1330.22784424 C-664.39773193 1330.22784424 -665.05773193 1330.22784424 -665.73773193 1330.22784424 C-667.13099147 1328.67544083 -668.45153322 1327.05754439 -669.73773193 1325.41534424 C-672.91027881 1321.4420587 -676.14442014 1317.63851601 -679.61273193 1313.91534424 C-684.41404887 1308.69716878 -688.76519827 1303.21279764 -693.10101318 1297.61065674 C-695.33764638 1294.72338124 -697.64598322 1291.90591305 -699.98773193 1289.10284424 C-730.50171202 1251.98387025 -756.18238683 1210.55611655 -778.73773193 1168.22784424 C-779.48603271 1166.82598877 -779.48603271 1166.82598877 -780.24945068 1165.39581299 C-797.958993 1132.11644169 -813.282069 1097.81897615 -825.73773193 1062.22784424 C-826.0626059 1061.30252899 -826.0626059 1061.30252899 -826.39404297 1060.35852051 C-851.85075017 987.74917976 -867.48613265 911.17518065 -791.73773193 445.22784424 C-759.43385643 378.34316808 -717.85479106 315.5637087 -667.31195068 261.02081299 C-664.96221176 258.47139974 -662.65902262 255.8877878 -660.36273193 253.29034424 C-656.19710815 248.63597399 -651.80669611 244.23367231 -647.34173584 239.86871338 C-644.77962817 237.34795543 -642.34132303 234.81323572 -640.06585693 232.02862549 C-638.19594503 229.77908382 -636.48464358 227.99861988 -634.23773193 226.16534424 C-630.366863 222.87363941 -626.80491875 219.33999774 -623.23773193 215.72784424 C-619.17466702 211.6231128 -615.08813825 207.63347178 -610.68304443 203.89190674 C-608.38540261 201.92645409 -606.1590007 199.89054553 -603.92523193 197.85284424 C-599.6086348 193.95737854 -595.16372063 190.25926206 -590.64398193 186.60284424 C-588.08438397 184.51112977 -585.56104246 182.38647078 -583.04827881 180.23931885 C-575.77181368 174.02345762 -568.3239037 168.06085781 -560.73773193 162.22784424 C-559.84392822 161.53851807 -559.84392822 161.53851807 -558.93206787 160.83526611 C-546.8359298 151.53850153 -534.31854867 142.85242929 -521.73773193 134.22784424 C-521.11382568 133.79987549 -520.48991943 133.37190674 -519.84710693 132.93096924 C-516.50722877 130.64927029 -513.13397697 128.42463922 -509.73773193 126.22784424 C-509.11173096 125.82243408 -508.48572998 125.41702393 -507.84075928 124.99932861 C-483.48449638 109.28120798 -458.437518 94.20430124 -432.35882568 81.50958252 C-429.80408135 80.2602897 -427.25622937 78.99754389 -424.70903015 77.73295593 C-406.67267412 68.79176845 -388.47634475 60.61540428 -369.73773193 53.22784424 C-368.581604 52.76958252 -367.42547607 52.3113208 -366.23431396 51.83917236 C-303.26087912 27.01251414 -237.98782166 10.63083674 -170.80230713 2.47851562 C-168.85044448 2.24152929 -166.89905268 2.00067426 -164.94769287 1.75958252 C-156.88880074 0.7773567 -148.8241629 -0.05255222 -140.73773193 -0.77215576 C-139.60883545 -0.87656982 -138.47993896 -0.98098389 -137.3168335 -1.08856201 C-92.11678484 -5.06385157 -45.11854953 -4.55433627 0 0 Z M-146.73773193 103.22784424 C-147.95428467 103.30647705 -149.1708374 103.38510986 -150.42425537 103.46612549 C-153.82185314 103.91831769 -153.82185314 103.91831769 -155.68719482 106.347229 C-156.44117554 107.74412964 -156.44117554 107.74412964 -157.21038818 109.16925049 C-157.79223877 110.21508301 -158.37408936 111.26091553 -158.97357178 112.33843994 C-159.87776855 114.04713257 -159.87776855 114.04713257 -160.80023193 115.79034424 C-161.45332926 116.97955552 -162.10913556 118.16728271 -162.76751709 119.35357666 C-164.11820879 121.791436 -165.4578967 124.23484811 -166.78997803 126.68292236 C-169.62204293 131.86533351 -172.61826182 136.95060924 -175.61273193 142.04034424 C-176.76804673 144.01799454 -177.92298729 145.99586351 -179.07757568 147.97393799 C-181.66976865 152.40607136 -184.26696876 156.8352496 -186.86663818 161.26300049 C-188.30291054 163.70957138 -189.73908902 166.15619736 -191.17523193 168.60284424 C-191.53388336 169.21372894 -191.89253479 169.82461365 -192.26205444 170.45401001 C-197.31548922 179.06380218 -202.32493508 187.69757851 -207.30023193 196.35284424 C-212.37833691 205.18555921 -217.52945744 213.97127548 -222.73773193 222.72784424 C-229.89070272 234.75650288 -236.90813999 246.85895188 -243.87884521 258.99395752 C-246.99161402 264.40921041 -250.11518814 269.81822395 -253.23773193 275.22784424 C-257.00147006 281.75011983 -260.7641782 288.27298195 -264.52288818 294.79815674 C-273.45052694 310.29271066 -282.4434648 325.74809867 -291.46722412 341.18682861 C-299.97504613 355.7456171 -308.42985829 370.33400018 -316.84661865 384.94561768 C-320.59801217 391.45655681 -324.35464188 397.96447618 -328.11029053 404.47296143 C-331.24955439 409.9136976 -334.3875469 415.35515901 -337.52288818 420.79815674 C-343.54520543 431.2499066 -349.58447358 441.69081126 -355.67523193 452.10284424 C-361.51121356 462.08212377 -367.25847854 472.11054632 -372.98529053 482.15264893 C-377.59569522 490.23631688 -382.23838167 498.30029735 -386.90960693 506.34893799 C-389.65946158 511.08798605 -392.39480255 515.83534404 -395.13006592 520.58282471 C-400.64040418 530.14622169 -406.16903933 539.69829878 -411.73773193 549.22784424 C-418.48646041 560.77793056 -425.17408165 572.36270293 -431.85101318 583.95440674 C-433.71741573 587.19259584 -435.58646956 590.42923862 -437.45648193 593.66534424 C-443.91106857 604.83723358 -450.34246535 616.02191042 -456.73773193 627.22784424 C-461.90464673 636.28143168 -467.08877277 645.32479176 -472.30023193 654.35284424 C-472.90423828 655.39948242 -473.50824463 656.44612061 -474.1305542 657.5244751 C-477.0594707 662.5973382 -479.99203965 667.66805515 -482.93067932 672.73529053 C-484.34029856 675.16662543 -485.74832352 677.59888158 -487.15615845 680.03125 C-488.15839579 681.76128219 -489.16300972 683.48993689 -490.16766357 685.21856689 C-490.76699707 686.25416748 -491.36633057 687.28976807 -491.98382568 688.35675049 C-492.51677246 689.27528809 -493.04971924 690.19382568 -493.59881592 691.14019775 C-494.81755141 692.97780295 -494.81755141 692.97780295 -494.73773193 694.22784424 C-355.14773193 694.22784424 -215.55773193 694.22784424 -71.73773193 694.22784424 C-86.85921081 721.23048508 -86.85921081 721.23048508 -93.06585693 731.69659424 C-96.39775149 737.32652359 -99.65915012 742.99706885 -102.92523193 748.66534424 C-103.55961182 749.76604248 -104.1939917 750.86674072 -104.84759521 752.00079346 C-106.81154732 755.40948061 -108.77476803 758.81858792 -110.73773193 762.22784424 C-118.52670267 775.75565169 -126.32436273 789.27596482 -134.25872803 802.71905518 C-143.66857257 818.6806865 -153.01865482 834.6757198 -162.26361084 850.73345947 C-166.58866298 858.24359614 -170.93484426 865.74107923 -175.30023193 873.22784424 C-175.85992676 874.18859863 -176.41962158 875.14935303 -176.99627686 876.13922119 C-177.53099609 877.0553418 -178.06571533 877.9714624 -178.61663818 878.91534424 C-179.07626953 879.70296143 -179.53590088 880.49057861 -180.00946045 881.30206299 C-180.57979004 882.2675708 -181.15011963 883.23307861 -181.73773193 884.22784424 C-181.97902332 885.02961527 -182.22031471 885.8313863 -182.46891797 886.65745342 C-183.79246112 890.05178544 -184.95045188 891.84260818 -187.73773193 894.22784424 C-194.49294675 896.29946346 -202.09680327 895.55521519 -209.07363892 895.46835327 C-211.31860403 895.47684231 -213.56355614 895.48972046 -215.80847371 895.50661933 C-221.98653703 895.54037818 -228.1629921 895.51169366 -234.34096909 895.47304344 C-240.31595298 895.44540657 -246.29073099 895.46468471 -252.26570984 895.48289805 C-264.48846481 895.51853229 -276.71076603 895.50766485 -288.93349838 895.47034073 C-301.03634337 895.4335345 -313.13892572 895.41736853 -325.2418251 895.42879868 C-326.3703859 895.4298471 -326.3703859 895.4298471 -327.5217459 895.43091671 C-331.34263688 895.43457377 -335.16352737 895.43859988 -338.98441781 895.44276808 C-366.05135708 895.47163138 -393.11808817 895.45417135 -420.18499756 895.40948486 C-446.4809233 895.36617721 -472.77673012 895.34384243 -499.07269287 895.34991455 C-500.28841768 895.35018274 -500.28841768 895.35018274 -501.52870258 895.35045635 C-509.66787114 895.35227504 -517.80703954 895.35452025 -525.9462079 895.35707796 C-542.52679093 895.36227865 -559.10737396 895.36463245 -575.68795776 895.36526489 C-576.45031451 895.36529748 -577.21267125 895.36533007 -577.99812972 895.36536365 C-628.91136701 895.36721374 -679.82455588 895.30249101 -730.73773193 895.22784424 C-728.6094379 891.48993786 -726.47946944 887.75299167 -724.34811401 884.01683044 C-723.62718219 882.75257076 -722.90666516 881.48807441 -722.18661499 880.22331238 C-717.08951639 871.27119599 -711.89634285 862.38376418 -706.61273193 853.54034424 C-700.88269069 843.92667095 -695.33007213 834.23081714 -689.89447021 824.44781494 C-682.86880633 811.82266687 -675.55265512 799.36707376 -668.19866943 786.93096924 C-662.69320945 777.61710959 -657.30459965 768.23952055 -651.94729614 758.83984375 C-646.67079077 749.58391665 -641.33811252 740.36295496 -635.9574585 731.16705322 C-631.68958714 723.86996042 -627.45656986 716.55338467 -623.23773193 709.22784424 C-618.429284 700.87981854 -613.5985887 692.54546262 -608.73773193 684.22784424 C-598.2759714 666.31947734 -587.93679558 648.34160308 -577.66165161 630.32568359 C-572.47788068 621.23988546 -567.23579173 612.18963383 -561.95404053 603.16046143 C-555.79980204 592.63673105 -549.71394106 582.07388504 -543.62884521 571.5100708 C-539.87745169 564.99913167 -536.12082199 558.4912123 -532.36517334 551.98272705 C-529.22590947 546.54199088 -526.08791697 541.10052947 -522.95257568 535.65753174 C-516.93025865 525.20578224 -510.89103856 514.76484876 -504.80023193 504.35284424 C-499.7249807 495.67522182 -494.71514427 486.96178856 -489.73773193 478.22784424 C-484.19982865 468.51039756 -478.60801381 458.82643388 -472.96087646 449.17193604 C-464.13273316 434.07433169 -455.40535339 418.91812884 -446.73773193 403.72784424 C-437.50907418 387.55432553 -428.20199565 371.42635228 -418.80023193 355.35284424 C-413.72502111 346.67519784 -408.71514452 337.96178899 -403.73773193 329.22784424 C-398.19771464 319.50668807 -392.60398385 309.81889766 -386.95428467 300.16094971 C-380.7984106 289.63416973 -374.71109306 279.0681949 -368.62445068 268.50128174 C-366.75804814 265.26309264 -364.88899431 262.02644986 -363.01898193 258.79034424 C-356.88263739 248.16906562 -350.7661023 237.53711461 -344.6895752 226.88153076 C-338.83241537 216.61079537 -332.92717211 206.36997222 -326.95623779 196.16485596 C-322.68867036 188.86855569 -318.45614095 181.55266485 -314.23773193 174.22784424 C-307.11805301 161.86690155 -299.9388807 149.54148962 -292.73773193 137.22784424 C-294.75055893 135.94519547 -294.75055893 135.94519547 -297.15423584 136.87359619 C-298.16405518 137.23413086 -299.17387451 137.59466553 -300.21429443 137.96612549 C-301.91416504 138.57013184 -301.91416504 138.57013184 -303.64837646 139.18634033 C-304.87411377 139.63316162 -306.09985107 140.07998291 -307.36273193 140.54034424 C-307.99064636 140.76748108 -308.61856079 140.99461792 -309.26550293 141.2286377 C-336.52761489 151.09977498 -362.79623455 163.19385911 -388.73773193 176.10284424 C-389.3686676 176.41563324 -389.99960327 176.72842224 -390.6496582 177.0506897 C-397.48296486 180.44519111 -404.17743191 183.97083462 -410.68157959 187.96807861 C-413.04989728 189.41910204 -415.46904902 190.74436833 -417.92523193 192.04034424 C-462.39407953 216.13798791 -503.68048512 247.47010345 -540.88226318 281.61846924 C-542.73773193 283.22784424 -542.73773193 283.22784424 -544.73773193 284.22784424 C-544.73773193 284.88784424 -544.73773193 285.54784424 -544.73773193 286.22784424 C-545.32060471 286.48572723 -545.90347748 286.74361023 -546.50401306 287.00930786 C-548.92697516 288.33108004 -550.53028607 289.77305567 -552.47723389 291.72442627 C-553.19510574 292.4392215 -553.9129776 293.15401672 -554.65260315 293.89047241 C-555.41932846 294.66438324 -556.18605377 295.43829407 -556.97601318 296.23565674 C-557.77500534 297.03510712 -558.5739975 297.8345575 -559.39720154 298.65823364 C-561.08819721 300.35225019 -562.77676198 302.04869627 -564.46307373 303.74737549 C-567.02487519 306.32730803 -569.59446171 308.89927385 -572.16546631 311.47003174 C-573.81111876 313.12060478 -575.45631557 314.77163225 -577.10101318 316.42315674 C-578.24199211 317.5658049 -578.24199211 317.5658049 -579.40602112 318.73153687 C-584.04351636 323.40971048 -588.45253005 328.22618241 -592.73773193 333.22784424 C-593.74819274 334.38389288 -594.75972456 335.53900736 -595.77288818 336.69268799 C-608.34681908 351.09143506 -620.4945761 365.76088765 -631.73773193 381.22784424 C-632.19792725 381.86029053 -632.65812256 382.49273682 -633.13226318 383.14434814 C-687.82636436 458.69539002 -729.34340086 543.95656768 -768.48773193 803.47784424 C-768.46473022 804.78422852 -768.44172852 806.09061279 -768.41802979 807.43658447 C-767.20163896 874.63708716 -757.68357256 942.4017184 -735.78265381 1006.17266846 C-734.64552663 1009.49743703 -733.54281363 1012.83266863 -732.44085693 1016.16925049 C-724.33604997 1040.46243322 -714.54299003 1064.01384961 -703.73773193 1087.22784424 C-703.32200928 1088.1263208 -702.90628662 1089.02479736 -702.47796631 1089.95050049 C-685.7513127 1125.98095136 -665.54348472 1160.45630209 -642.47698975 1192.78887939 C-640.78361816 1195.16349789 -639.10017216 1197.54491303 -637.41741943 1199.92706299 C-630.68534985 1209.40586542 -623.61531663 1218.52507726 -616.19085693 1227.47052002 C-614.10157272 1229.99717791 -612.04801925 1232.55252331 -609.98773193 1235.10284424 C-606.40377174 1239.48908543 -602.63925052 1243.67909141 -598.81585693 1247.85675049 C-596.31260086 1250.71290921 -594.09248632 1253.71073393 -591.92913818 1256.82940674 C-591.33939209 1257.5216333 -591.33939209 1257.5216333 -590.73773193 1258.22784424 C-590.07773193 1258.22784424 -589.41773193 1258.22784424 -588.73773193 1258.22784424 C-588.52503662 1258.76925049 -588.31234131 1259.31065674 -588.09320068 1259.86846924 C-586.24753263 1263.08110181 -583.6980722 1265.43331857 -581.05023193 1267.97784424 C-577.6764479 1271.27994097 -574.34871258 1274.5548962 -571.30023193 1278.16534424 C-564.38365289 1286.26859125 -556.61017594 1293.79643782 -548.49554443 1300.68878174 C-546.65846169 1302.29724974 -544.94865406 1303.98623292 -543.23773193 1305.72784424 C-539.57485688 1309.4398854 -535.696241 1312.83575598 -531.73773193 1316.22784424 C-530.71792043 1317.11163554 -529.69841206 1317.99577669 -528.67913818 1318.88018799 C-514.79363435 1330.89629568 -500.54380335 1342.36523683 -485.73773193 1353.22784424 C-485.00763916 1353.7644165 -484.27754639 1354.30098877 -483.52532959 1354.8538208 C-473.4376474 1362.25073049 -463.22741495 1369.41238874 -452.73773193 1376.22784424 C-451.83281006 1376.8169458 -450.92788818 1377.40604736 -449.99554443 1378.01300049 C-447.2564403 1379.77385314 -444.50144228 1381.5058401 -441.73773193 1383.22784424 C-440.78156982 1383.82484131 -440.78156982 1383.82484131 -439.80609131 1384.43389893 C-430.01047953 1390.53467469 -420.09693753 1396.34427303 -409.97601318 1401.88800049 C-407.32695131 1403.34078863 -404.6987561 1404.81951216 -402.09320068 1406.34893799 C-395.29927737 1410.33211817 -388.46077133 1413.90421083 -381.29998779 1417.17559814 C-376.87359083 1419.19912527 -372.52602105 1421.34258277 -368.18695068 1423.54815674 C-360.61045446 1427.37181262 -352.86987539 1430.74846832 -345.05023193 1434.04034424 C-344.33707825 1434.34154175 -343.62392456 1434.64273926 -342.88916016 1434.95306396 C-318.95282593 1445.04304534 -294.55268515 1453.58473128 -269.73773193 1461.22784424 C-268.70068115 1461.54849854 -267.66363037 1461.86915283 -266.59515381 1462.19952393 C-252.37235109 1466.53828311 -237.93990652 1469.85086495 -223.42523193 1473.04034424 C-222.53732971 1473.23556671 -221.64942749 1473.43078918 -220.73461914 1473.63192749 C-203.89146096 1477.96216532 -203.89146096 1477.96216532 -186.73773193 1479.22784424 C-177.44255983 1472.40553867 -172.16571664 1460.05227416 -166.73773193 1450.22784424 C-165.59719967 1448.18669965 -164.45521995 1446.14636331 -163.31195068 1444.10675049 C-161.51539358 1440.90129361 -159.71962997 1437.6954258 -157.92816162 1434.48712158 C-153.11726633 1425.87559274 -148.19973609 1417.33112656 -143.23626709 1408.8069458 C-140.30781586 1403.76684172 -137.39920986 1398.71526537 -134.48773193 1393.66534424 C-133.2000062 1391.43225132 -131.9122455 1389.19917857 -130.62445068 1386.96612549 C-129.65837891 1385.2909082 -129.65837891 1385.2909082 -128.67279053 1383.58184814 C-126.78556819 1380.310758 -124.89669825 1377.04062543 -123.00726318 1373.77081299 C-116.55697074 1362.60521056 -110.12942111 1351.42707841 -103.73773193 1340.22784424 C-93.78044645 1322.78292366 -83.75730235 1305.377108 -73.61273193 1288.04034424 C-68.5339166 1279.35936102 -63.55536616 1270.6267536 -58.62518311 1261.86065674 C-54.78732405 1255.05015086 -50.87627012 1248.28574793 -46.92523193 1241.54034424 C-41.83007998 1232.84137373 -36.79348516 1224.11061523 -31.80023193 1215.35284424 C-23.5463269 1200.87819808 -15.22055723 1186.44562408 -6.88323975 1172.01885986 C-5.02170521 1168.79716149 -3.16074354 1165.57513345 -1.30023193 1162.35284424 C-0.68470459 1161.28678955 -0.06917725 1160.22073486 0.56500244 1159.12237549 C5.51679849 1150.53788827 10.43051674 1141.93204131 15.33963013 1133.32312012 C20.49562252 1124.28454996 25.7154748 1115.28507286 30.97344971 1106.30548096 C35.79963004 1098.05094483 40.54510702 1089.75162482 45.27874756 1081.44387817 C50.54785518 1072.19883074 55.88223261 1062.99366584 61.25665283 1053.80938721 C64.93960428 1047.51030646 68.5867389 1041.19227707 72.19976807 1034.85284424 C81.44326356 1018.63417672 90.77466215 1002.46664842 100.19976807 986.35284424 C105.25060773 977.71500023 110.24251136 969.04464826 115.19976807 960.35284424 C120.41040366 951.21708808 125.632386 942.08826999 130.88726807 932.97784424 C131.49377197 931.92621094 132.10027588 930.87457764 132.72515869 929.79107666 C135.90503084 924.28526547 139.0996605 918.7883766 142.31304932 913.30206299 C142.96515381 912.18799072 143.6172583 911.07391846 144.28912354 909.92608643 C145.53995574 907.79139247 146.79280837 905.6578808 148.0479126 903.5256958 C148.60204834 902.58049072 149.15618408 901.63528564 149.72711182 900.66143799 C150.46369019 899.40931519 150.46369019 899.40931519 151.21514893 898.13189697 C152.34258139 896.4439693 152.34258139 896.4439693 152.26226807 895.22784424 C77.02226807 894.89784424 1.78226807 894.56784424 -75.73773193 894.22784424 C-62.95245319 870.78816654 -62.95245319 870.78816654 -56.41741943 859.80596924 C-53.17591183 854.31430079 -50.0888242 848.73708693 -46.98773193 843.16534424 C-41.80718789 833.86621149 -36.51476596 824.64180506 -31.1293335 815.46002197 C-26.61011707 807.74711721 -22.16239195 799.99516814 -17.73773193 792.22784424 C-12.19738995 782.50499124 -6.6016952 772.81643998 -0.9520874 763.15655518 C9.50507532 745.27140501 19.81396637 727.30082632 30.07232666 709.30108643 C30.70735107 708.18765869 31.34237549 707.07423096 31.99664307 705.92706299 C32.55577393 704.94568359 33.11490479 703.9643042 33.690979 702.95318604 C34.20950439 702.05382324 34.72802979 701.15446045 35.26226807 700.22784424 C35.77960226 698.92506294 35.77960226 698.92506294 36.30738765 697.59596282 C38.26226807 695.22784424 38.26226807 695.22784424 42.11659545 694.60685176 C43.78144216 694.58302384 45.44681927 694.58727424 47.11164379 694.61260509 C48.03189223 694.60683587 48.95214068 694.60106665 49.90027544 694.59512261 C53.0130986 694.58178836 56.12465292 694.60439897 59.2374115 694.62657166 C61.47977036 694.62439318 63.72212799 694.62001879 65.96447879 694.61362582 C72.14891678 694.60239907 78.33292515 694.62250946 84.51730835 694.64751613 C90.49454361 694.66682755 96.47174853 694.66271844 102.44900358 694.65910692 C114.67967521 694.65253101 126.91021198 694.66926862 139.14084435 694.69919395 C151.25447951 694.7287572 163.36805853 694.74801924 175.48172951 694.75345802 C176.23430959 694.75380172 176.98688967 694.75414542 177.76227521 694.75449953 C181.58409267 694.75619115 185.40591018 694.75769809 189.22772775 694.75913391 C216.31292854 694.76964203 243.39805591 694.80334566 270.48321533 694.85064697 C296.7996176 694.89655276 323.1159998 694.93197883 349.43243408 694.95318604 C350.24331186 694.95384367 351.05418965 694.9545013 351.88963948 694.95517886 C360.03264663 694.96177133 368.17565394 694.96815042 376.31866138 694.97437315 C392.90759682 694.98705496 409.49653095 695.00116122 426.08546448 695.01612854 C426.84823309 695.01681499 427.61100171 695.01750144 428.39688452 695.01820869 C479.35204349 695.06422884 530.30715967 695.14356063 581.26226807 695.22784424 C579.0584816 699.16830703 576.85380643 703.10827194 574.64898682 707.04815674 C574.03309692 708.14941895 573.41720703 709.25068115 572.78265381 710.38531494 C564.39573973 725.3696402 555.84136092 740.25614021 547.22711182 755.11065674 C543.81344412 760.99885576 540.4127211 766.8945067 537.01226807 772.79034424 C536.37829102 773.88951172 535.74431396 774.9886792 535.09112549 776.12115479 C533.79461843 778.36909781 532.49815059 780.61706346 531.20172119 782.86505127 C527.43508056 789.39598129 523.66743012 795.92632897 519.89923096 802.45635986 C516.70943945 807.98438657 513.52142663 813.51342688 510.33648682 819.04425049 C509.04104257 821.29302253 507.74547101 823.54172124 506.44976807 825.79034424 C505.81885254 826.88532227 505.18793701 827.98030029 504.53790283 829.10845947 C501.12563985 835.02295877 497.68382788 840.91791833 494.19976807 846.79034424 C489.41744558 854.85237723 484.87777361 863.0473696 480.32403564 871.24005127 C476.56792856 877.97288231 472.69110718 884.58427215 468.52008057 891.06768799 C467.09453782 893.09929046 467.09453782 893.09929046 467.26226807 895.22784424 C402.91226807 894.89784424 338.56226807 894.56784424 272.26226807 894.22784424 C267.97226807 901.81784424 263.68226807 909.40784424 259.26226807 917.22784424 C256.96096091 921.21474768 254.65611138 925.19640346 252.32476807 929.16534424 C251.14894212 931.17443266 249.97316224 933.18354805 248.79742432 935.19268799 C248.21364014 936.18897217 247.62985596 937.18525635 247.02838135 938.21173096 C244.0997066 943.21323053 241.18149818 948.22082837 238.26226807 953.22784424 C237.095652 955.22787376 235.92898533 957.22787375 234.76226807 959.22784424 C234.18476807 960.21784424 233.60726807 961.20784424 233.01226807 962.22784424 C227.76226807 971.22784424 227.76226807 971.22784424 226.01251221 974.22735596 C224.84495079 976.22893635 223.67747042 978.23056401 222.5100708 980.23223877 C219.60775391 985.20844816 216.7040689 990.18384879 213.79742432 995.15753174 C205.8757455 1008.71684063 198.00942079 1022.3072871 190.17095947 1035.91485596 C186.95348138 1041.49955507 183.73295384 1047.08249455 180.51226807 1052.66534424 C179.88328613 1053.75572998 179.2543042 1054.84611572 178.60626221 1055.96954346 C174.56269821 1062.97796303 170.51172808 1069.98204611 166.45562744 1076.98321533 C161.34208438 1085.81212552 156.24587071 1094.65102859 151.14898682 1103.48956299 C148.61183743 1107.88910824 146.0727676 1112.2875348 143.53179932 1116.68487549 C136.71666181 1128.48227455 129.93383542 1140.29723335 123.18490601 1152.13256836 C118.5883256 1160.19047677 113.94899032 1168.22200065 109.26226807 1176.22784424 C102.11856614 1188.43171093 95.10616059 1200.70899813 88.1050415 1212.99493408 C85.4945423 1217.57472084 82.8785523 1222.15136072 80.26226807 1226.72784424 C79.298691 1228.41402192 78.33515002 1230.10022023 77.37164307 1231.78643799 C75.09039307 1235.77862549 72.80914307 1239.77081299 70.52789307 1243.76300049 C70.20259613 1244.33229279 69.87729919 1244.90158508 69.54214478 1245.48812866 C67.85156555 1248.44673267 66.16082947 1251.40524683 64.4697876 1254.36358643 C61.37484965 1259.77828005 58.28093236 1265.1935416 55.19285583 1270.6121521 C47.97307837 1283.28043994 40.70948917 1295.92024342 33.33990479 1308.5022583 C28.86647307 1316.15461685 24.49748612 1323.8623281 20.15386963 1331.58892822 C16.27880204 1338.46758344 12.31991464 1345.29333886 8.32476807 1352.10284424 C3.54117374 1360.25934987 -1.13897118 1368.46575101 -5.73773193 1376.72784424 C-10.89996505 1386.00226697 -16.18690054 1395.19412162 -21.55804443 1404.34893799 C-25.51667326 1411.10606056 -29.40019978 1417.90129122 -33.23773193 1424.72784424 C-38.23010159 1433.6073851 -43.33203341 1442.41733859 -48.48309326 1451.20562744 C-53.25855644 1459.36853221 -57.93087403 1467.58688613 -62.56390381 1475.83135986 C-63.06857178 1476.72919189 -63.57323975 1477.62702393 -64.09320068 1478.55206299 C-64.5330127 1479.33669922 -64.97282471 1480.12133545 -65.42596436 1480.92974854 C-66.38262989 1482.60573823 -67.38098792 1484.2581289 -68.40301514 1485.89508057 C-69.90327134 1488.06923203 -69.90327134 1488.06923203 -69.73773193 1490.22784424 C8.05794043 1492.19735493 87.37740209 1474.46392688 248.07867432 1409.94268799 C251.02526616 1408.35550539 254.00043173 1406.87375059 257.01226807 1405.41534424 C271.71819777 1398.11172814 285.58883011 1389.28292295 299.26226807 1380.22784424 C300.49255608 1379.42027715 301.72301969 1378.61297753 302.95367432 1377.80596924 C324.83903332 1363.3977635 346.21682277 1348.12284975 366.26226807 1331.22784424 C367.32599556 1330.3384321 368.38980237 1329.44911483 369.45367432 1328.55987549 C375.31719198 1323.64277408 381.09565205 1318.65089799 386.75054932 1313.49346924 C388.82975017 1311.6179848 390.92971995 1309.7748225 393.04351807 1307.93878174 C397.26606209 1304.25064344 401.37212109 1300.45000314 405.44976807 1296.60284424 C406.18372803 1295.91061768 406.91768799 1295.21839111 407.67388916 1294.50518799 C420.42368496 1282.45244889 420.42368496 1282.45244889 432.25836182 1269.51690674 C435.180114 1266.17938865 438.22672093 1262.96172113 441.26226807 1259.72784424 C449.28672314 1251.16020813 456.88021869 1242.35766854 464.26226807 1233.22784424 C464.94531006 1232.38624756 464.94531006 1232.38624756 465.64215088 1231.52764893 C483.60222392 1209.37892156 499.88327998 1186.23510508 515.26226807 1162.22784424 C515.65865479 1161.61022217 516.0550415 1160.9926001 516.46343994 1160.35626221 C518.80341968 1156.69006588 521.04894388 1152.97130048 523.26226807 1149.22784424 C524.0262793 1147.9412793 524.0262793 1147.9412793 524.8057251 1146.62872314 C566.7638905 1075.71036621 596.13254658 998.66054306 621.51226807 824.66534424 C621.55355835 823.79053406 621.59484863 822.91572388 621.63739014 822.0144043 C622.54026859 802.25051625 622.44650842 782.55081235 621.51226807 762.79034424 C621.46903412 761.87197784 621.42580017 760.95361145 621.3812561 760.00741577 C617.2373866 674.42343192 596.93297539 590.33640576 532.78814697 455.85333252 C531.33963432 453.36096371 529.91243591 450.8578053 528.49273682 448.34893799 C517.4735452 428.94527301 505.29276902 410.33563474 492.26226807 392.22784424 C491.67945068 391.41686279 491.0966333 390.60588135 490.49615479 389.77032471 C482.88661816 379.22031023 474.98371381 368.97288698 466.68609619 358.95587158 C465.4016293 357.39697983 464.1354787 355.82303985 462.87164307 354.24737549 C457.84631968 347.98379795 452.5115571 342.08242143 447.03570557 336.21612549 C444.89872492 333.92426014 442.81003458 331.60025667 440.76226807 329.22784424 C432.0322188 319.1525456 422.7828002 309.56172383 413.35845947 300.13873291 C411.59825546 298.37628182 409.84628666 296.60588132 408.09429932 294.83526611 C406.97108759 293.70912993 405.84740847 292.58345969 404.72320557 291.45831299 C403.94207901 290.66640816 403.94207901 290.66640816 403.14517212 289.85850525 C400.67201585 287.06803947 400.67201585 287.06803947 397.26226807 286.22784424 C397.26226807 285.56784424 397.26226807 284.90784424 397.26226807 284.22784424 C395.81543754 282.72510537 395.81543754 282.72510537 393.88726807 281.16534424 C390.68680462 278.44860638 387.54920744 275.68449205 384.44976807 272.85284424 C379.20056057 268.12217547 373.76732889 263.65613799 368.26226807 259.22784424 C367.15270023 258.32573762 366.04333366 257.42338341 364.93414307 256.52081299 C297.93181674 202.21929959 220.9893556 159.1557642 132.26226807 131.22784424 C131.60305359 131.02135254 130.94383911 130.81486084 130.26464844 130.60211182 C86.58099454 116.92456577 41.72296569 108.23462323 -3.73773193 103.22784424 C-4.50589233 103.14214172 -5.27405273 103.05643921 -6.06549072 102.96813965 C-52.06964661 97.89475399 -100.77909015 97.54234945 -146.73773193 103.22784424 Z " fill="#004C88" transform="translate(871.7377319335938,2.77215576171875)"/>
</svg>
